<svg width="452" height="452" viewBox="0 0 452 452" fill="none" xmlns="http://www.w3.org/2000/svg">
<path fill-rule="evenodd" clip-rule="evenodd" d="M226 -1.97575e-05C101.184 -3.06693e-05 3.06693e-05 101.184 1.97575e-05 226C8.84576e-06 350.816 101.184 452 226 452C350.816 452 452 350.816 452 226C452 101.184 350.816 -8.84576e-06 226 -1.97575e-05ZM224.744 1.25587C101.314 1.25586 1.25488 101.315 1.25487 224.745C1.25486 348.174 101.314 448.234 224.744 448.234C348.173 448.234 448.233 348.174 448.233 224.745C448.233 101.315 348.173 1.25588 224.744 1.25587Z" fill="url(#paint0_linear_6553_23182)"/>
<defs>
<linearGradient id="paint0_linear_6553_23182" x1="226" y1="452" x2="226" y2="1.076e-05" gradientUnits="userSpaceOnUse">
<stop stop-color="white"/>
<stop offset="1" stop-color="white" stop-opacity="0"/>
</linearGradient>
</defs>
</svg>
