<svg width="20" height="26" viewBox="0 0 20 26" fill="none" xmlns="http://www.w3.org/2000/svg">
<path d="M1.46295 8.40613C1.05569 8.40613 0.710146 8.56206 0.426105 8.87392C0.142063 9.18578 0 9.56001 0 9.99678V16.703C0 17.1507 0.142021 17.5297 0.426105 17.8417C0.710146 18.1535 1.05569 18.3095 1.46295 18.3095C1.8699 18.3095 2.21335 18.1536 2.49299 17.8417C2.77207 17.5298 2.912 17.1507 2.912 16.703V9.99678C2.912 9.55996 2.76998 9.18578 2.4859 8.87392C2.20181 8.56206 1.86076 8.40613 1.46295 8.40613Z" fill="#6D6969"/>
<path d="M13.2247 2.38597L14.2333 0.343244C14.2995 0.208007 14.2759 0.104303 14.1624 0.0313822C14.0392 -0.0314969 13.9445 0.000364977 13.8784 0.124716L12.8557 2.18377C11.9558 1.74695 11.0041 1.52814 10.0005 1.52814C8.99661 1.52814 8.04478 1.747 7.14526 2.18377L6.12256 0.124716C6.0561 0.000364977 5.96144 -0.0312154 5.83852 0.0313822C5.72475 0.104632 5.7012 0.208007 5.76766 0.343244L6.77625 2.38597C5.75356 2.95859 4.93904 3.75608 4.33301 4.78017C3.72697 5.80481 3.42383 6.92453 3.42383 8.14129H16.5628C16.5628 6.92481 16.2596 5.80505 15.6536 4.78017C15.0476 3.75608 14.2377 2.95859 13.2247 2.38597ZM7.39374 5.35715C7.28467 5.47719 7.1544 5.53692 7.00298 5.53692C6.85126 5.53692 6.72364 5.47719 6.61953 5.35715C6.51542 5.23768 6.46336 5.09522 6.46336 4.9284C6.46336 4.76215 6.51542 4.6194 6.61953 4.49965C6.72364 4.38018 6.85156 4.32044 7.00298 4.32044C7.1544 4.32044 7.28467 4.38018 7.39374 4.49965C7.50255 4.61968 7.55722 4.76215 7.55722 4.9284C7.55692 5.09494 7.5023 5.23768 7.39374 5.35715ZM13.3808 5.35715C13.2765 5.47719 13.1486 5.53692 12.9974 5.53692C12.8457 5.53692 12.7154 5.47719 12.6066 5.35715C12.4976 5.23768 12.4431 5.09522 12.4431 4.9284C12.4431 4.76215 12.4976 4.6194 12.6066 4.49965C12.7154 4.38018 12.8457 4.32044 12.9974 4.32044C13.1488 4.32044 13.2765 4.38018 13.3808 4.49965C13.485 4.61968 13.537 4.76215 13.537 4.9284C13.537 5.09494 13.485 5.23768 13.3808 5.35715Z" fill="#6D6969"/>
<path d="M3.48047 19.0892C3.48047 19.5679 3.63189 19.9732 3.93478 20.3057C4.23793 20.6383 4.60702 20.8045 5.04274 20.8045H6.09394L6.10834 24.3452C6.10834 24.7923 6.25036 25.1719 6.5344 25.4839C6.81845 25.7958 7.15954 25.9517 7.5571 25.9517C7.9641 25.9517 8.30986 25.7958 8.59394 25.4839C8.87802 25.1719 9.02004 24.7923 9.02004 24.3452V20.8048H10.9802V24.3452C10.9802 24.7923 11.1222 25.1719 11.4063 25.4839C11.6904 25.7958 12.0358 25.9517 12.4431 25.9517C12.8501 25.9517 13.1959 25.7958 13.48 25.4839C13.764 25.1719 13.906 24.7923 13.906 24.3452V20.8048H14.9714C15.3975 20.8048 15.7618 20.6385 16.0653 20.306C16.3681 19.9734 16.5196 19.5682 16.5196 19.0895V8.70221H3.48047V19.0892Z" fill="#6D6969"/>
<path d="M18.5367 8.40614C18.1388 8.40614 17.798 8.55977 17.514 8.86619C17.2299 9.17317 17.0879 9.55026 17.0879 9.9968V16.703C17.0879 17.1507 17.2299 17.5298 17.514 17.8417C17.798 18.1536 18.1391 18.3095 18.5367 18.3095C18.9437 18.3095 19.2894 18.1536 19.5735 17.8417C19.8576 17.5298 19.9996 17.1507 19.9996 16.703V9.9968C19.9996 9.55021 19.8576 9.17317 19.5735 8.86619C19.2894 8.55977 18.9437 8.40614 18.5367 8.40614Z" fill="#6D6969"/>
</svg>
