<svg width="149" height="166" viewBox="0 0 149 166" fill="none" xmlns="http://www.w3.org/2000/svg">
<path d="M149 42.6836C145.301 45.7138 140.046 49.0767 135.718 50.5242L142.148 51.7447L115.587 83.3102L62.6482 98.6652L0 166L49.3496 165.983L74.495 125.294L124.873 95.1286L144.439 53.1068L148.607 58.192C147.773 53.6739 148.156 47.4113 149 42.6836Z" fill="#F7CC7F"/>
<path d="M111.092 5.37793C111.092 5.37793 115.128 8.01107 125.075 7.65263C125.075 7.65263 114.413 11.7103 110.245 12.3381L108.529 5.50844L111.092 5.37793Z" fill="#E25A44"/>
<path d="M112.995 8.8177C112.995 8.8177 112.18 10.7404 110.245 12.3387L109.352 8.78002L109.409 7.05859L112.995 8.8177Z" fill="#B75742"/>
<path d="M97.6523 1.4823C97.6523 1.4823 109.308 0.688218 111.12 1.35914L112.993 8.81649C112.993 8.81649 106.358 8.24207 99.8957 10.4148L97.6523 1.4823Z" fill="#F47458"/>
<path d="M90.6319 84.6087C90.6319 84.6087 90.0701 85.5324 90.1212 85.8063C90.1723 86.0802 90.8471 88.9752 91.2192 89.1673C91.5912 89.3585 92.5332 89.3217 92.3217 89.6976C92.1621 89.9816 90.4778 90.3594 89.3543 90.5808C89.026 90.6452 87.9672 88.1481 87.7438 87.7988C87.4183 87.2915 86.6523 86.1564 86.7234 85.7263C86.758 85.5168 87.0553 85.0287 87.5204 84.5251C88.0092 83.9957 88.3557 83.0059 88.3557 83.0059L90.6319 84.6087Z" fill="#F48C7F"/>
<path d="M98.7873 84.3451C98.7873 84.3451 98.5977 86.4158 98.5977 86.4204C98.6241 86.7338 98.615 87.5279 98.6843 87.8009C98.9424 88.8293 103.065 85.7541 101.92 85.562C101.816 85.5445 101.441 85.29 101.322 84.9481C101.14 84.4214 101.405 83.6338 101.405 83.6338L98.7873 84.3451Z" fill="#F7A491"/>
<path d="M97.1133 47.1221C97.1133 47.1221 98.3043 50.4427 98.3171 50.4932C99.7014 56.0031 103.489 66.4897 103.543 67.5779C103.676 70.2331 101.501 84.5035 101.501 84.5035L98.4885 84.8978L98.4228 68.4932L95.46 62.6397L90.3906 50.8682L97.1133 47.1221Z" fill="#3C8F7C"/>
<path d="M88.0563 52.6404L88.3126 56.0106L90.1492 69.68L87.6934 84.125C87.6934 84.125 88.9728 85.8097 90.2258 85.772L95.9773 70.1175L97.3451 51.6147L96.1943 47.875L88.0563 52.6404Z" fill="#50BFA5"/>
<path d="M87.5525 84.4961C87.5525 84.4961 90.4962 88.9352 91.2285 88.9986C91.4227 89.0152 92.32 88.9554 92.5772 89.2964C92.6547 89.3993 92.8188 89.9131 92.8188 89.9131L89.1256 90.9847C89.1256 90.9847 88.127 88.677 87.7112 87.779C87.7112 87.779 86.1837 85.7139 86.2357 85.4777C86.2886 85.2405 87.5525 84.4961 87.5525 84.4961Z" fill="#13375B"/>
<path d="M98.5 88.3276L98.6122 86.3957C98.6122 86.3957 99.8369 86.585 100.37 86.3654C100.904 86.1457 101.905 85.5557 101.905 85.5557C104.297 85.7248 106.195 85.6182 106.014 86.2918L98.5 88.3276Z" fill="#13375B"/>
<path d="M104.215 35.9158L105.808 37.1474C106.115 36.9093 106.786 35.9048 107.221 35.5923L105.765 33.9922C105.645 33.904 105.581 33.7578 105.595 33.6089C105.605 33.5042 105.619 33.404 105.635 33.3626C105.68 33.2358 105.72 33.0851 105.766 32.9592C105.812 32.8323 105.511 32.5787 105.353 32.5336C105.195 32.4886 105.143 33.0979 105.075 33.2799C104.869 33.8268 104.62 35.3239 104.572 35.5721L104.215 35.9158Z" fill="#F48C7F"/>
<path d="M105.981 36.9911C105.533 36.5104 104.902 36.2402 104.434 35.7402L97.3661 40.6453C97.3661 40.6453 91.901 34.1319 88.9336 36.4396C90.2322 38.6436 91.7979 40.7556 92.6041 41.762C94.4188 44.0266 97.1901 45.1074 97.7309 44.8574C98.3401 44.5762 105.822 37.185 105.981 36.9911Z" fill="#13375B"/>
<path d="M75.0644 20.6875C75.2979 21.3152 75.7028 22.3032 75.7028 22.3032C75.7146 22.5872 75.7721 23.7664 75.8459 25.2112L77.8348 24.1129C77.8348 24.1129 77.5293 21.7803 77.6059 21.6268C77.6707 21.4963 77.8212 21.6314 78.351 20.6287C78.5042 20.3392 78.4814 19.8585 78.4814 19.8585C78.4814 19.8585 78.4495 19.2676 78.3118 19.2289C78.175 19.1903 78.0355 19.296 77.9999 19.4036C77.9643 19.5111 78.0054 19.7455 77.9698 19.8521C77.9342 19.9587 77.647 20.1186 77.5193 20.1278C77.3916 20.137 77.3269 18.3908 77.3269 18.3908C77.3269 18.3908 77.3388 17.8917 77.3561 17.7272C77.3707 17.5866 77.4454 17.1702 77.4454 17.1702C77.4454 17.1702 77.5202 16.571 77.336 16.548C77.2275 16.5342 77.015 17.0406 76.8901 17.5645C76.756 18.1288 76.7123 18.7161 76.6548 18.7152C76.5189 18.7134 76.4761 17.7566 76.4761 17.7566C76.4761 17.7566 76.5572 17.3063 76.529 17.1013C76.6247 16.8348 76.6521 16.3587 76.4259 16.3477C76.384 16.3458 76.1642 16.9726 76.1642 16.9726C76.1642 16.9726 76.0995 17.4028 76.0566 17.6059C75.98 17.9634 76.0274 18.5084 75.9946 18.7547C75.9672 18.9597 75.9116 18.8834 75.8915 18.8944C75.876 18.9027 75.8715 18.6251 75.8587 18.2437C75.8523 18.0516 75.804 17.8356 75.8313 17.6123C75.856 17.4064 75.8496 17.116 75.8414 16.9414C75.8186 16.4469 75.5186 16.5342 75.4657 16.9956C75.4456 17.1711 75.4255 17.3623 75.4064 17.5572C75.3298 18.3117 75.4201 19.0194 75.3416 19.035C75.2404 19.0552 75.1529 17.7575 75.1529 17.7575C75.1529 17.7575 74.9103 17.0627 74.8346 17.7446C74.7462 18.5351 74.8401 19.1591 74.8465 19.1867C74.8848 19.3723 74.831 20.0598 75.0644 20.6875Z" fill="#F8A492"/>
<path d="M89.0177 26.6864C89.0177 26.6864 87.8185 25.6855 87.1272 27.1652C87.1272 27.1652 86.4232 26.8729 86.0402 27.5935C86.0402 27.5935 84.8055 27.3775 84.7325 29.2074C84.7325 29.2074 84.106 29.1651 84.1133 29.9095C84.1206 30.654 84.5492 31.0979 84.5492 31.0979C84.5492 31.0979 84.2365 31.4003 84.4736 32.0556C84.6751 32.6134 85.1575 32.6429 85.1575 32.6429C85.1575 32.6429 85.401 33.595 85.8524 33.8349C86.3038 34.0757 86.8537 33.8661 86.8537 33.8661C86.8537 33.8661 87.0671 34.3726 87.5467 34.2659C88.0264 34.1602 88.5717 33.6207 89.1408 33.7641C89.7098 33.9075 91.0932 33.5141 91.0932 33.5141C91.0932 33.5141 92.5924 32.6098 91.9221 31.0363C91.9221 31.0363 92.6635 30.177 91.8264 29.3572C91.8264 29.3572 92.1875 27.8701 91.0348 27.1597C89.8803 26.4511 89.0177 26.6864 89.0177 26.6864Z" fill="#F47458"/>
<path d="M92.4125 36.9716L89.9713 35.7061C89.9713 35.7061 87.8027 36.025 87.5337 36.0581C87.2647 36.0911 86.7586 46.2735 86.7157 50.0877C86.6728 53.9018 87.1352 54.5195 87.1352 54.5195C87.1352 54.5195 90.6689 54.8797 93.1867 54.3421C95.8048 53.7833 98.609 51.9801 98.609 51.9801C98.609 51.9801 95.4811 45.042 94.7616 42.8445C94.043 40.6461 92.4125 36.9716 92.4125 36.9716Z" fill="#F7CC7F"/>
<path d="M87.6296 36.0326L79.612 29.5733C79.612 29.5733 77.7854 22.7639 77.6833 22.5112C77.583 22.263 75.7938 22.3412 75.0716 22.3577C74.8399 22.3632 76.0774 29.725 76.5689 30.9244C77.1489 32.3416 83.3454 38.3643 83.3454 38.3643C83.3454 38.3643 84.7471 41.865 84.8328 44.5478C84.975 49.0034 84.6604 55.1943 84.8702 55.3625C86.1186 55.9571 90.5797 55.493 90.8068 55.0013C93.3118 49.5714 87.6296 36.0326 87.6296 36.0326Z" fill="#13375B"/>
<path d="M89.7595 34.383L90.1252 35.7993C90.1252 35.7993 90.8055 37.8212 90.2985 38.2891C89.7915 38.7569 87.6338 36.0438 87.6338 36.0438L87.3867 32.3721L89.7595 34.383Z" fill="#F7A491"/>
<path d="M87.467 33.5613C88.0752 34.7497 89.2589 35.382 90.0696 35.5842L89.7595 34.3829L87.3867 32.3711L87.467 33.5613Z" fill="#F47458"/>
<path d="M84.1354 30.2527C84.202 30.8088 84.5695 31.2205 84.9562 31.1736C85.3428 31.1268 85.6027 30.6378 85.5352 30.0818C85.4687 29.5257 85.1012 29.114 84.7145 29.1609C84.3278 29.2077 84.0689 29.6967 84.1354 30.2527Z" fill="#F47458"/>
<path d="M85.9775 27.834C86.0158 28.1529 86.4289 28.3662 86.8994 28.3083C87.37 28.2513 87.7202 27.9452 87.6819 27.6263C87.6436 27.3074 87.2314 27.0942 86.7599 27.1521C86.2894 27.209 85.9392 27.5142 85.9775 27.834Z" fill="#F47458"/>
<path d="M88.21 28.382C89.2897 27.8535 90.5801 28.4619 90.8929 29.6108C91.0288 30.1098 91.1728 30.7412 91.2695 31.4388C91.5021 33.117 90.8345 34.8587 90.0767 34.9515C89.3189 35.0443 87.0938 34.2107 86.7318 31.8322C86.5075 30.3644 87.0774 28.9362 88.21 28.382Z" fill="#F7A491"/>
<path d="M87.3126 31.9526C87.3573 32.3239 87.1494 32.6539 86.8484 32.6906C86.5475 32.7274 86.2675 32.4563 86.2228 32.0849C86.1782 31.7136 86.3861 31.3837 86.687 31.3469C86.9879 31.3111 87.2679 31.5822 87.3126 31.9526Z" fill="#F7A491"/>
<path d="M91.3915 27.1456C92.2496 27.675 92.6372 28.5913 92.2587 29.1915C91.8803 29.7917 90.8781 29.8496 90.0199 29.3202C89.1627 28.7908 88.7743 27.8745 89.1527 27.2743C89.5321 26.6732 90.5343 26.6163 91.3915 27.1456Z" fill="#F47458"/>
<path d="M89.4072 27.9075C89.4401 28.1786 89.141 28.4387 88.7397 28.4874C88.3385 28.5362 87.9865 28.356 87.9536 28.084C87.9208 27.8129 88.2199 27.5528 88.6212 27.504C89.0224 27.4553 89.3744 27.6355 89.4072 27.9075Z" fill="#F47458"/>
<path d="M91.8191 29.7333C91.8611 30.0826 91.6176 30.3996 91.2747 30.441C90.9318 30.4824 90.62 30.2333 90.5789 29.884C90.537 29.5348 90.7805 29.2177 91.1233 29.1764C91.4662 29.135 91.7772 29.3841 91.8191 29.7333Z" fill="#F47458"/>
<path d="M94.4475 38.4853C94.4475 38.4853 97.8362 46.5585 99.0418 49.4048C99.1722 49.7127 99.8279 51.7246 99.8516 51.9258C99.9054 52.3716 98.0478 53.1721 97.8152 53.1666C97.6073 53.1611 94.8789 44.6348 93.2939 40.4935C92.7568 39.0901 91.9689 37.7979 90.9694 36.6803L90.1998 36.0397L90.125 35.7998C90.1259 35.7989 93.5675 36.1077 94.4475 38.4853Z" fill="#13375B"/>
<path d="M97.6034 0.00423365L96.9961 0.15918L110.807 55.144L111.414 54.9891L97.6034 0.00423365Z" fill="#13375B"/>
<path d="M107.52 34.8734C107.498 34.752 107.459 34.627 107.409 34.503C107.353 34.3706 107.261 34.2107 107.199 34.1638C107.158 34.1344 107.129 34.0379 107.092 33.9396C107.08 33.9083 107.064 33.878 107.044 33.8504C107.044 33.8495 107.044 33.8495 107.044 33.8486C106.986 33.7695 106.915 33.7025 106.835 33.6455C106.759 33.5912 106.694 33.5205 106.61 33.4001C106.546 33.3063 106.46 33.2264 106.358 33.1758C106.258 33.1262 106.18 33.1253 106.144 33.1878C105.978 33.4764 105.144 34.3973 105.482 34.8421C105.765 35.2143 106.133 35.6022 106.209 35.7786C106.313 36.0204 106.68 36.0038 106.899 35.9193C107.31 35.7621 107.634 35.5002 107.52 34.8734Z" fill="#F7A491"/>
</svg>
