<svg width="56" height="69" viewBox="0 0 56 69" fill="none" xmlns="http://www.w3.org/2000/svg">
<path d="M52.8685 21.7615H43.7421V4.12981C43.7421 1.8527 42.0396 0.00012207 39.9469 0.00012207H3.79514C1.70244 0.00012207 0 1.8527 0 4.12981V57.6213C0 59.8984 1.70256 61.751 3.79514 61.751H30.0934V64.6655C30.0934 66.5443 31.4982 68.0727 33.2249 68.0727H52.8686C54.5952 68.0727 56 66.5443 56 64.6655V25.1688C55.9998 23.2899 54.5951 21.7615 52.8685 21.7615ZM1.78064 4.12981C1.78064 2.92099 2.68434 1.93766 3.79514 1.93766H39.9469C41.0577 1.93766 41.9615 2.92099 41.9615 4.12981V6.79194H1.78064V4.12981ZM30.0934 59.8133H3.79514C2.68434 59.8133 1.78064 58.83 1.78064 57.6212V54.9591H30.0934V59.8133ZM30.0934 25.1687V53.0215H1.78064V8.72948H41.9615V21.7615H33.2249C31.4981 21.7615 30.0934 23.2899 30.0934 25.1687ZM54.2191 64.6654C54.2191 65.4757 53.6132 66.135 52.8683 66.135H33.2247C32.48 66.135 31.874 65.4757 31.874 64.6654V61.7759H54.2191V64.6654ZM54.2191 59.8383H31.8741V25.1687C31.8741 24.3584 32.48 23.699 33.2249 23.699H52.8686C53.6133 23.699 54.2194 24.3584 54.2194 25.1687V59.8383H54.2191ZM40.7165 64.9242H45.0653C45.557 64.9242 45.9557 64.4905 45.9557 63.9554C45.9557 63.4204 45.5571 62.9866 45.0653 62.9866H40.7165C40.2249 62.9866 39.8262 63.4202 39.8262 63.9554C39.8263 64.4905 40.2249 64.9242 40.7165 64.9242ZM45.0653 24.8838H40.7165C40.2249 24.8838 39.8262 25.3175 39.8262 25.8526C39.8262 26.3876 40.2247 26.8215 40.7165 26.8215H45.0653C45.557 26.8215 45.9557 26.3878 45.9557 25.8526C45.9556 25.3175 45.557 24.8838 45.0653 24.8838ZM18.94 58.3264H24.8019C25.2935 58.3264 25.6922 57.8927 25.6922 57.3575C25.6922 56.8225 25.2937 56.3888 24.8019 56.3888H18.94C18.4484 56.3888 18.0497 56.8225 18.0497 57.3575C18.0498 57.8927 18.4484 58.3264 18.94 58.3264ZM21.871 3.09915C21.2141 3.09915 20.6816 3.67856 20.6816 4.39332C20.6816 5.10808 21.2141 5.6875 21.871 5.6875C22.5278 5.6875 23.0603 5.10808 23.0603 4.39332C23.0603 3.67856 22.5278 3.09915 21.871 3.09915Z" fill="#00A0DC"/>
</svg>
