<svg width="80" height="164" viewBox="0 0 80 164" fill="none" xmlns="http://www.w3.org/2000/svg">
<g clip-path="url(#clip0_7738_11791)">
<path d="M18.9306 48.1108H10.5544C10.5544 48.1108 7.24835 46.0211 5.74232 45.8957C3.68426 45.7345 -0.197832 45.8778 0.0121746 46.6659C0.222179 47.454 6.03032 48.4869 5.85032 49.1676C5.67031 49.8482 2.68824 49.49 2.68824 50.0632C2.68824 51.2692 10.7224 51.323 10.7224 51.323L22.6567 52.7977" fill="#FFBEA1"/>
<path d="M56.1255 16.6636C56.1255 16.6636 43.7292 19.4578 39.1871 27.0643C34.4889 34.9276 28.3988 45.1313 28.3988 45.1313L11.3224 48.1166V51.9438C11.3224 51.9438 26.8868 55.9381 31.5549 55.9381C40.1051 55.9381 50.7254 33.9007 50.7254 33.9007" fill="#68D7EC"/>
<path d="M12.9062 52.3378V47.8359" stroke="#050D75" stroke-width="0.75" stroke-miterlimit="10"/>
<path d="M39.163 153.151C39.163 153.151 40.3931 154.465 40.3931 156.674C40.3931 158.238 40.0931 159.289 40.0931 159.289H39.409L39.259 157.999C39.259 157.999 37.429 158.196 35.5089 159.277C34.5789 159.803 30.0968 159.456 29.4308 159.044C28.6868 158.585 28.9568 157.868 29.2328 157.588C29.5088 157.307 34.5009 155.522 34.5009 155.522" fill="#19202D"/>
<path d="M47.5991 102.42C53.8933 121.579 39.1569 153.152 39.1569 153.152L36.2528 154.268C36.2528 154.268 34.0988 121.072 34.0988 105.244C34.0988 91.8934 31.9927 70.4052 45.7991 64.0107" fill="#FFBEA1"/>
<path d="M36.5829 153.152C36.5829 153.152 34.8249 155.05 32.2388 156.346C31.4228 156.752 32.4728 157.409 33.3428 157.486C36.0669 157.725 39.709 153.958 39.709 153.958L38.803 152.167" fill="#FFBEA1"/>
<path d="M74.0958 156.877C76.0698 158.841 78.9559 163.606 77.1258 163.976C75.2958 164.346 70.3877 159.713 70.3877 159.713L70.4057 160.101L69.6857 160.113C69.6857 160.113 69.0736 157.563 70.1657 156.471" fill="#19202D"/>
<path d="M76.208 89.5345C76.208 89.5345 75.656 106.192 75.968 109.166C76.28 112.133 74.096 156.292 74.096 156.877C74.216 157.737 76.556 161.014 75.38 161.014C74.282 161.014 70.0039 157.193 70.1779 156.477C69.9319 155.844 62.6237 131.329 61.0516 121.788C59.2216 110.664 61.4656 103.482 61.4656 103.482L55.3215 67.521" fill="#FFBEA1"/>
<path d="M45.5951 59.7655C45.5951 59.7655 36.6249 63.0373 34.3808 77.1876C32.6048 88.3646 33.3248 105.834 33.3248 105.834C33.3248 105.834 36.8529 109.853 50.1492 112.11C68.0836 115.149 75.9978 110.838 75.9978 110.838C75.9978 110.838 79.2859 88.5855 76.9279 74.3755C74.5158 59.8491 62.9055 54.8457 62.9055 54.8457" fill="#277EF1"/>
<path d="M73.7718 111.691C73.7718 111.691 80.282 69.7899 67.1717 59.2876" stroke="#050D75" stroke-width="0.75" stroke-miterlimit="10"/>
<path d="M44.1489 27.0646C44.1489 27.0646 44.2749 29.1125 43.5789 30.3424C42.2408 32.6949 40.4768 34.4741 40.4768 39.6745C40.4768 42.8807 43.2909 46.0152 43.2909 47.0123C43.2909 48.0094 45.4869 59.2878 45.4869 59.2878C45.4869 59.2878 48.445 59.2878 56.6052 59.2878C65.9114 59.2878 69.0135 55.9383 69.0135 55.9383L76.0757 30.4798L60.3973 17.3505L55.2672 16.8071L44.1489 27.0646Z" fill="#68D7EC"/>
<path d="M50.0771 28.1035H45.541" stroke="#050D75" stroke-width="0.75" stroke-miterlimit="10"/>
<path d="M44.1487 27.0645C44.1487 27.0645 44.2747 29.1124 43.5787 30.3423C42.2406 32.6947 40.4766 35.471 40.4766 39.6743C40.4766 42.8805 43.2907 46.0151 43.2907 47.0122C43.2907 48.0093 45.5947 59.7713 45.5947 59.7713" stroke="#050D75" stroke-width="0.75" stroke-miterlimit="10"/>
<path d="M39.5412 40.6057L43.8013 59.5802H16.6326L12.3065 40.343C12.2105 39.9489 12.4325 39.5967 12.7805 39.5967H38.4011C38.9171 39.6027 39.4032 40.0266 39.5412 40.6057Z" fill="#19202D"/>
<path d="M36.3129 59.5864H57.3975L57.2835 58.5296C57.2115 57.855 56.6054 57.3057 55.9274 57.3057H36.0729L36.3129 59.5864Z" fill="#19202D"/>
<path d="M25.7825 49.5912C26.0645 50.8331 27.1746 51.8422 28.2486 51.8422C29.3286 51.8422 29.9706 50.8331 29.6826 49.5912C29.4006 48.3494 28.2906 47.3403 27.2166 47.3403C26.1425 47.3403 25.5005 48.3494 25.7825 49.5912Z" fill="#19202D"/>
<path d="M64.9155 62.1118C61.7414 62.1118 43.051 62.1118 43.051 62.1118C43.051 62.1118 39.3669 62.4999 36.4568 62.4462C33.5467 62.3924 31.8067 60.0878 31.8067 59.5862C31.8067 59.1862 33.5047 59.6101 35.9048 59.5862C37.3808 59.5683 38.4249 59.8012 38.5389 59.4788C38.8149 58.7145 36.0128 58.2369 36.5648 57.6936C36.7748 57.4846 38.0169 57.5264 38.8629 57.6936C40.9629 58.1175 43.159 59.4012 43.159 59.4012L61.3994 55.1919" fill="#FFBEA1"/>
<path d="M58.7536 16.6636C58.7536 16.6636 76.04 18.3532 79.2021 30.9691C82.7182 44.9761 73.7899 60.828 69.2058 62.1117C67.2978 62.643 45.5412 62.655 45.5412 62.655L44.5452 58.9114L62.8997 54.8395L64.9037 30.4795" fill="#68D7EC"/>
<path d="M46.4833 58.4814L47.0713 62.6549" stroke="#050D75" stroke-width="0.75" stroke-miterlimit="10"/>
<path d="M44.5452 58.9114L62.9056 54.8454L64.9097 30.4795" stroke="#050D75" stroke-width="0.75" stroke-miterlimit="10"/>
<path d="M60.9135 0.280454C62.7196 0.7581 64.3516 1.88057 65.5216 3.39113C66.7457 4.97333 67.4597 6.91377 68.4197 8.68106C68.9177 9.60053 69.5537 10.4364 70.1718 11.2783C70.6338 11.9052 71.6958 12.5799 71.4438 13.4695C71.1918 14.3591 69.8238 14.789 69.0377 14.8845C68.0057 15.0099 66.9497 14.8606 65.9177 15.0218C65.0356 15.1591 64.2016 15.5174 63.3676 15.8338C61.5315 16.5264 59.5275 17.022 57.5534 16.813C56.3294 16.6876 55.2914 16.0547 54.1154 15.7801C52.9153 15.4995 51.5293 15.7383 50.2873 15.7264C49.8073 15.7204 49.2852 15.6905 48.9372 15.3681C48.6192 15.0756 48.5292 14.6158 48.4872 14.1859C48.3252 12.4485 48.7392 10.6633 49.6453 9.16468C50.4973 7.75562 51.7573 6.62718 52.6093 5.21813C53.5813 3.61204 54.2354 1.99998 55.7894 0.829747C57.1754 -0.191223 59.3295 -0.137487 60.9135 0.280454Z" fill="#19202D"/>
<path d="M54.4812 13.332L54.9792 17.7562C54.9792 17.7562 55.3392 19.3205 56.8632 19.434C60.3313 19.6907 60.4033 17.3502 60.4033 17.3502L57.7513 11.7856" fill="#FFBEA1"/>
<path d="M57.5115 12.9799C57.5115 12.9799 52.3753 15.2965 49.8673 12.6515C48.4332 11.1409 52.0873 3.60008 53.6774 2.53731C55.2674 1.47455 58.3815 2.61493 59.0415 4.39416C59.7015 6.18534 61.4476 10.8663 57.5115 12.9799Z" fill="#FFBEA1"/>
<path d="M51.3975 6.88993C51.3975 7.0989 51.5715 7.27205 51.7815 7.27205C51.9915 7.27205 52.1655 7.0989 52.1655 6.88993C52.1655 6.68096 51.9915 6.50781 51.7815 6.50781C51.5715 6.50781 51.3975 6.67499 51.3975 6.88993Z" fill="#19202D"/>
<path d="M55.6455 8.43012C55.6455 8.63909 55.4715 8.81224 55.2615 8.81224C55.0515 8.81224 54.8775 8.63909 54.8775 8.43012C54.8775 8.22115 55.0515 8.048 55.2615 8.048C55.4775 8.04203 55.6455 8.21518 55.6455 8.43012Z" fill="#19202D"/>
<path d="M54.7095 6.84819C55.1715 6.62728 55.7235 6.64519 56.1735 6.89595C56.5455 7.10492 56.9235 7.50495 56.9355 7.95275C56.9355 8.02439 56.8395 8.04828 56.7975 7.98857C56.6955 7.82736 56.6115 7.66019 56.4855 7.51092C56.3595 7.36166 56.2215 7.23628 56.0475 7.14075C55.6635 6.92581 55.1955 6.88998 54.7755 7.00939C54.6855 7.03328 54.6195 6.88998 54.7095 6.84819Z" fill="#19202D"/>
<path d="M51.2351 5.52267C51.5651 5.15847 52.1291 5.12264 52.5611 5.3137C52.7711 5.40923 52.9451 5.56447 53.0771 5.74359C53.1431 5.83314 53.1971 5.94062 53.2331 6.04809C53.2691 6.1675 53.2691 6.28094 53.2211 6.39438C53.2031 6.44811 53.1311 6.46006 53.1011 6.41229C53.0531 6.34064 53.0051 6.269 52.9691 6.18541C52.9271 6.09585 52.8851 6.01226 52.8371 5.93464C52.7411 5.78538 52.6031 5.66 52.4411 5.57641C52.0931 5.39729 51.6671 5.47491 51.3311 5.63611C51.2531 5.67791 51.1811 5.58835 51.2351 5.52267Z" fill="#19202D"/>
<path d="M53.1733 7.38525C53.1733 7.38525 51.6853 8.96149 51.8413 9.32569C52.0993 9.92275 52.9933 9.92275 52.9933 9.92275" stroke="#EF977F" stroke-width="0.75" stroke-miterlimit="10"/>
<path d="M52.8794 11.2543L50.9053 10.5796C50.9053 10.5796 50.5513 11.7379 51.1994 11.9648C52.4474 12.4066 52.8794 11.2543 52.8794 11.2543Z" fill="white"/>
<path d="M54.5473 13.9173C54.5473 13.9173 55.8913 13.977 57.5474 13.0337" stroke="#EF977F" stroke-width="0.75" stroke-miterlimit="10"/>
<path d="M59.2394 10.8542C57.0853 9.31384 56.2393 6.23898 55.8193 3.62984C54.3372 4.00002 52.8672 4.42393 51.4152 4.90157C51.2712 4.19107 51.3912 1.46849 54.7933 0.411694C56.4793 -0.113718 58.3213 0.68037 59.4674 2.01778C61.1414 3.96419 61.7834 6.74648 61.1294 9.22428" fill="#19202D"/>
<path d="M58.6873 10.6811C59.8573 9.51681 60.7153 10.1975 60.9073 10.687C61.0993 11.1707 60.9253 11.7259 60.6613 12.1797C60.3313 12.7469 59.8093 13.2604 59.1553 13.3499C58.5013 13.4395 57.7572 12.9499 57.7812 12.2931" fill="#FFBEA1"/>
<path d="M59.5575 15.5889C59.5575 15.5889 58.5315 18.7413 56.8634 19.4339C57.7575 20.0907 59.1915 22.1326 59.1915 22.1326C61.3216 20.0131 61.3936 16.8606 61.3936 16.8606L59.5575 15.5889Z" fill="white"/>
<path d="M54.8532 16.6636C54.8532 16.6636 55.6153 18.9145 56.8633 19.4399C56.1073 20.1385 54.7692 21.8341 54.7692 21.8341C54.7692 21.8341 53.8152 21.0281 54.0792 18.6757C54.0852 18.0488 54.8532 16.6636 54.8532 16.6636Z" fill="white"/>
</g>
<defs>
<clipPath id="clip0_7738_11791">
<rect width="80" height="164" fill="white" transform="matrix(-1 0 0 1 80 0)"/>
</clipPath>
</defs>
</svg>
