<svg width="17" height="18" viewBox="0 0 17 18" fill="none" xmlns="http://www.w3.org/2000/svg">
<path d="M5.90039 3.93711C5.90039 6.11087 7.66373 7.87421 9.8375 7.87421C12.0113 7.87421 13.7746 6.11087 13.7746 3.93711C13.7764 1.76334 12.0131 0 9.83931 0C7.66373 0 5.90039 1.76334 5.90039 3.93711Z" fill="#A1A1A1"/>
<path d="M16.3019 11.6101C16.0295 11.4067 14.179 9.34186 8.76546 8.89513C5.06625 8.59004 3.4155 5.68079 2.55289 4.58392C1.80651 3.63415 1.36522 3.02216 0.549836 3.46345C-0.329112 3.93924 -0.354536 6.06579 1.97722 8.48652C3.72967 10.3062 6.21033 10.8909 6.4446 12.2202C6.67705 13.5496 6.4446 16.1573 6.4446 17.5157C6.4446 17.5157 11.9271 19.1846 16.3019 14.3922C17.7275 12.8322 16.5725 11.8134 16.3019 11.6101Z" fill="#A1A1A1"/>
</svg>
