<svg width="21" height="35" viewBox="0 0 21 35" fill="none" xmlns="http://www.w3.org/2000/svg">
<path fill-rule="evenodd" clip-rule="evenodd" d="M10.3259 0.0569811C17.0743 3.11245 17.3344 10.4478 16.6444 18.166L20.2235 22.4005C20.3107 22.5043 20.3527 22.6308 20.3527 22.7589V29.7602C20.3527 30.0602 20.1191 30.3035 19.831 30.3035C19.7422 30.3035 19.6597 30.2808 19.5865 30.2402L15.6461 28.3768C15.5994 29.1812 15.5714 29.9694 15.5714 30.7316C15.5714 31.0317 15.3377 31.2749 15.0496 31.2749H5.2704C4.98227 31.2749 4.74866 31.0317 4.74866 30.7316C4.74866 29.9889 4.72062 29.2201 4.67234 28.4319L0.766264 30.2792C0.693064 30.3197 0.610519 30.3424 0.521745 30.3424C0.233617 30.3424 0 30.0991 0 29.7991V22.7978C0 22.6697 0.0420511 22.5432 0.129268 22.4394L3.61795 18.3071C2.85013 10.5208 3.00587 3.07028 9.88512 0.0423849C10.03 -0.0208652 10.1873 -0.0111344 10.3181 0.0569811H10.3259ZM13.2663 31.9983L13.7865 33.9104C13.8644 34.199 13.7024 34.4975 13.4268 34.5785C13.38 34.5915 13.3333 34.598 13.2866 34.598V34.5996H6.9322C6.64407 34.5996 6.41045 34.3564 6.41045 34.0563C6.41045 33.9931 6.42135 33.9314 6.44004 33.8747L6.95089 31.9983H13.2663Z" fill="url(#paint0_linear_6737_4967)"/>
<path d="M13.9591 16.4309H10.754V13.2258C10.754 12.7459 10.365 12.3569 9.88518 12.3569C9.40532 12.3569 9.01633 12.7459 9.01633 13.2258V16.4309H5.81123C5.33138 16.4309 4.94238 16.8199 4.94238 17.2997C4.94238 17.7796 5.33138 18.1686 5.81123 18.1686H9.01633V21.3737C9.01633 21.8535 9.40532 22.2425 9.88518 22.2425C10.365 22.2425 10.754 21.8535 10.754 21.3737V18.1686H13.9591C14.439 18.1686 14.828 17.7796 14.828 17.2997C14.828 16.8199 14.439 16.4309 13.9591 16.4309Z" fill="white"/>
<defs>
<linearGradient id="paint0_linear_6737_4967" x1="10.1764" y1="0" x2="10.1764" y2="34.5996" gradientUnits="userSpaceOnUse">
<stop stop-color="#64CCF3"/>
<stop offset="1" stop-color="#00A0DC"/>
</linearGradient>
</defs>
</svg>
