<svg width="32" height="29" viewBox="0 0 32 29" fill="none" xmlns="http://www.w3.org/2000/svg">
<path d="M31.0625 15H30.125C30.125 11.8984 27.6016 9.375 24.5 9.375C21.3984 9.375 18.875 11.8984 18.875 15H11.375V13.125H16.0625C16.5803 13.125 17 12.7053 17 12.1875V0.9375C17 0.419678 16.5803 0 16.0625 0H0.9375C0.419678 0 0 0.419678 0 0.9375V12.1875C0 12.7053 0.419678 13.125 0.9375 13.125H5.625V15H0.9375C0.419678 15 0 15.4197 0 15.9375V19.6875C0 20.2053 0.419678 20.625 0.9375 20.625H1.875V27.1875C1.875 27.7053 2.29468 28.125 2.8125 28.125H29.1875C29.7053 28.125 30.125 27.7053 30.125 27.1875V20.625H31.0625C31.5803 20.625 32 20.2053 32 19.6875V15.9375C32 15.4197 31.5803 15 31.0625 15ZM24.5 11.25C26.5679 11.25 28.25 12.9321 28.25 15H20.75C20.75 12.9321 22.4321 11.25 24.5 11.25ZM1.875 1.875H15.125V11.25C14.4358 11.25 2.56665 11.25 1.875 11.25V1.875ZM7.5 13.125H9.5V15H7.5V13.125ZM28.25 26.25H3.75V20.625H28.25V26.25ZM30.125 18.75C29.9094 18.75 2.23853 18.75 1.875 18.75V16.875H30.125V18.75Z" fill="#00A0DC"/>
<path d="M28.25 5.625C28.25 3.55713 26.5679 1.875 24.5 1.875C22.4321 1.875 20.75 3.55713 20.75 5.625C20.75 7.69287 22.4321 9.375 24.5 9.375C26.5679 9.375 28.25 7.69287 28.25 5.625ZM24.5 7.5C23.4661 7.5 22.625 6.65894 22.625 5.625C22.625 4.59106 23.4661 3.75 24.5 3.75C25.5339 3.75 26.375 4.59106 26.375 5.625C26.375 6.65894 25.5339 7.5 24.5 7.5Z" fill="#00A0DC"/>
</svg>
