<svg width="29" height="24" viewBox="0 0 29 24" fill="none" xmlns="http://www.w3.org/2000/svg">
<path d="M19.5463 6.83347V6.80956C19.5463 6.49531 19.2123 6.29244 18.9341 6.4386C18.0578 6.89884 17.2001 7.4311 16.3985 8.0455C15.7268 8.56032 15.1558 9.06087 14.6911 9.48508L14.6882 8.59015C14.6882 8.56037 14.7057 5.59506 16.2174 4.08342C16.3894 3.91132 16.3894 3.63239 16.2174 3.46029C16.0453 3.2883 15.7664 3.2883 15.5943 3.46029C14.3411 4.71351 13.9666 6.70053 13.8547 7.79942C13.5301 7.43839 13.1602 7.02564 12.7988 6.68084C11.4072 5.35304 9.85664 4.3063 8.35476 3.49484C8.07676 3.34463 7.73926 3.54776 7.73926 3.86372C7.73926 4.01102 7.81697 4.14693 7.94322 4.22283C9.28984 5.03286 10.736 6.04433 12.1784 7.3066C12.8209 7.8688 13.4622 8.67883 13.8086 9.08072L13.813 10.4402C13.8045 10.4904 13.8045 10.5419 13.8135 10.592L13.8502 19.8403C13.8509 20.0831 14.048 20.2794 14.2907 20.2794C14.2911 20.2794 14.2917 20.2794 14.2921 20.2794C14.5355 20.2786 14.7321 20.0808 14.7313 19.8374L14.695 10.6916C15.2021 10.198 15.9592 9.48289 16.9396 8.74097C17.703 8.1632 18.5095 7.65261 19.3282 7.20064C19.4622 7.12666 19.5463 6.98654 19.5463 6.83347Z" fill="#4D984E"/>
<path d="M0.919922 1.0362C3.09028 2.68929 4.95007 4.87566 7.24174 6.32867C8.77543 7.30104 10.7565 7.62007 12.4892 6.99365C13.2276 4.91016 11.8894 2.75247 10.1473 1.66175C7.53801 0.0280234 3.78043 0.119228 0.919922 1.0362Z" fill="#BAE543"/>
<path d="M28.9999 3.7718C26.6175 5.17118 24.4828 7.14443 22.0026 8.32795C20.3428 9.11999 18.3122 9.20089 16.6457 8.36124C16.1556 6.17689 17.7624 4.16936 19.6461 3.28359C22.4675 1.95671 26.2348 2.50339 28.9999 3.7718Z" fill="#BAE543"/>
<path d="M10.1473 1.66174C7.53801 0.0280235 3.78043 0.119228 0.919922 1.0362C5.39847 1.91627 9.33039 3.86243 12.4892 6.99359C13.2276 4.9101 11.8894 2.75246 10.1473 1.66174Z" fill="#A5CC2A"/>
<path d="M16.6855 8.38074C18.3443 9.19895 20.3554 9.11356 22.0019 8.32788C24.4821 7.14436 26.6168 5.17111 28.9993 3.77173C24.3965 4.11389 20.2373 5.62279 16.6855 8.38074Z" fill="#A5CC2A"/>
<path d="M27.1314 23.6187C27.1314 22.4788 26.0053 21.2163 23.8417 21.0876C23.1944 19.2953 21.4724 17.8581 19.067 18.0888C17.1442 13.1499 6.77651 14.0985 5.25829 20.9845C5.15793 20.9747 5.0563 20.9691 4.95342 20.9689C3.37816 20.9659 2.38374 22.1131 2.13574 23.6187H27.1314Z" fill="#BA7D60"/>
<path d="M16.6282 18.8407C18.8599 18.61 20.4576 20.0471 21.0582 21.8394C22.6269 21.94 23.6078 22.733 23.9615 23.6187H27.1309C27.1309 22.4789 26.0048 21.2164 23.8412 21.0876C23.1939 19.2954 21.4719 17.8582 19.0665 18.0889C18.3243 16.1824 16.3236 15.1541 14.0596 15.005C15.1533 15.3913 16.3731 16.443 16.6282 18.8407Z" fill="#A56A58"/>
</svg>
