<svg width="29" height="43" viewBox="0 0 29 43" fill="none" xmlns="http://www.w3.org/2000/svg">
<g filter="url(#filter0_d_6631_4967)">
<path fill-rule="evenodd" clip-rule="evenodd" d="M14.3259 0.0569811C21.0743 3.11245 21.3344 10.4478 20.6444 18.166L24.2235 22.4005C24.3107 22.5043 24.3527 22.6308 24.3527 22.7589V29.7602C24.3527 30.0602 24.1191 30.3035 23.831 30.3035C23.7422 30.3035 23.6597 30.2808 23.5865 30.2402L19.6461 28.3768C19.5994 29.1812 19.5714 29.9694 19.5714 30.7316C19.5714 31.0317 19.3377 31.2749 19.0496 31.2749H9.2704C8.98227 31.2749 8.74866 31.0317 8.74866 30.7316C8.74866 29.9889 8.72062 29.2201 8.67234 28.4319L4.76626 30.2792C4.69306 30.3197 4.61052 30.3424 4.52174 30.3424C4.23362 30.3424 4 30.0991 4 29.7991V22.7978C4 22.6697 4.04205 22.5432 4.12927 22.4394L7.61795 18.3071C6.85013 10.5208 7.00587 3.07028 13.8851 0.0423849C14.03 -0.0208652 14.1873 -0.0111344 14.3181 0.0569811H14.3259ZM17.2663 31.9983L17.7865 33.9104C17.8644 34.199 17.7024 34.4975 17.4268 34.5785C17.38 34.5915 17.3333 34.598 17.2866 34.598V34.5996H10.9322C10.6441 34.5996 10.4105 34.3564 10.4105 34.0563C10.4105 33.9931 10.4214 33.9314 10.44 33.8747L10.9509 31.9983H17.2663Z" fill="url(#paint0_linear_6631_4967)"/>
<path d="M17.9591 16.4309H14.754V13.2258C14.754 12.746 14.365 12.357 13.8852 12.357C13.4053 12.357 13.0163 12.746 13.0163 13.2258V16.4309H9.81123C9.33138 16.4309 8.94238 16.8199 8.94238 17.2998C8.94238 17.7797 9.33138 18.1686 9.81123 18.1686H13.0163V21.3737C13.0163 21.8536 13.4053 22.2426 13.8852 22.2426C14.365 22.2426 14.754 21.8536 14.754 21.3737V18.1686H17.9591C18.439 18.1686 18.828 17.7797 18.828 17.2998C18.828 16.8199 18.439 16.4309 17.9591 16.4309Z" fill="white"/>
</g>
<defs>
<filter id="filter0_d_6631_4967" x="0" y="0" width="28.3525" height="42.5996" filterUnits="userSpaceOnUse" color-interpolation-filters="sRGB">
<feFlood flood-opacity="0" result="BackgroundImageFix"/>
<feColorMatrix in="SourceAlpha" type="matrix" values="0 0 0 0 0 0 0 0 0 0 0 0 0 0 0 0 0 0 127 0" result="hardAlpha"/>
<feOffset dy="4"/>
<feGaussianBlur stdDeviation="2"/>
<feComposite in2="hardAlpha" operator="out"/>
<feColorMatrix type="matrix" values="0 0 0 0 0 0 0 0 0 0 0 0 0 0 0 0 0 0 0.25 0"/>
<feBlend mode="normal" in2="BackgroundImageFix" result="effect1_dropShadow_6631_4967"/>
<feBlend mode="normal" in="SourceGraphic" in2="effect1_dropShadow_6631_4967" result="shape"/>
</filter>
<linearGradient id="paint0_linear_6631_4967" x1="14.1764" y1="0" x2="14.1764" y2="34.5996" gradientUnits="userSpaceOnUse">
<stop stop-color="#195DCC"/>
</linearGradient>
</defs>
</svg>
