<svg width="17" height="27" viewBox="0 0 17 27" fill="none" xmlns="http://www.w3.org/2000/svg">
<path fill-rule="evenodd" clip-rule="evenodd" d="M13.4696 14.1847C14.028 8.42482 13.8175 2.95058 8.3563 0.670347H8.35C8.24412 0.619514 8.11683 0.612252 7.99961 0.659454C2.43253 2.91911 2.30649 8.47929 2.92786 14.29L0.104611 17.3739C0.0340302 17.4513 0 17.5457 0 17.6414V22.8663C0 23.0902 0.189057 23.2717 0.422226 23.2717C0.494068 23.2717 0.560868 23.2548 0.620105 23.2245L3.78113 21.846C3.8202 22.4342 3.84289 23.0079 3.84289 23.5622C3.84289 23.7861 4.03195 23.9677 4.26512 23.9677H12.179C12.4122 23.9677 12.6012 23.7861 12.6012 23.5622C12.6012 22.9934 12.6239 22.4052 12.6617 21.8048L15.8505 23.1955C15.9097 23.2258 15.9765 23.2427 16.0484 23.2427C16.2815 23.2427 16.4706 23.0611 16.4706 22.8372V17.6123C16.4706 17.5167 16.4366 17.4223 16.366 17.3448L13.4696 14.1847ZM11.1569 25.9344L10.7359 24.5075H5.62506L5.21166 25.9078C5.19653 25.9502 5.18771 25.9962 5.18771 26.0434C5.18771 26.2673 5.37677 26.4488 5.60994 26.4488H10.7523V26.4476C10.7901 26.4476 10.8279 26.4428 10.8657 26.4331C11.0888 26.3726 11.2199 26.1499 11.1569 25.9344ZM8.52734 8.44112H10.4727C10.7639 8.44112 11 8.65884 11 8.92742C11 9.196 10.7639 9.41373 10.4727 9.41373H8.52734V11.2076C8.52734 11.4762 8.29125 11.694 8 11.694C7.70875 11.694 7.47266 11.4762 7.47266 11.2076V9.41373H5.52734C5.2361 9.41373 5 9.196 5 8.92742C5 8.65884 5.2361 8.44112 5.52734 8.44112H7.47266V6.64719C7.47266 6.37861 7.70875 6.16089 8 6.16089C8.29125 6.16089 8.52734 6.37861 8.52734 6.64719V8.44112Z" fill="#F5FCFF"/>
</svg>
