<svg width="32" height="32" viewBox="0 0 32 32" fill="none" xmlns="http://www.w3.org/2000/svg">
<path d="M31.8145 13.0231L29.4191 11.0257V2.06475C29.4191 1.77985 29.1879 1.54863 28.903 1.54863H24.2579C23.973 1.54863 23.7418 1.77985 23.7418 2.06475V6.29439L16.3302 0.119999C16.1388 -0.0399996 15.8611 -0.0399996 15.6696 0.119999L0.185893 13.0231C-0.184168 13.3322 0.0357011 13.9356 0.516212 13.9356H2.58071V31.4838C2.58071 31.7687 2.81193 31.9999 3.09683 31.9999H28.903C29.1879 31.9999 29.4191 31.7687 29.4191 31.4838V13.9356H31.4836C31.9652 13.9356 32.1835 13.3307 31.8145 13.0231ZM28.903 12.9033C28.6181 12.9033 28.3869 13.1346 28.3869 13.4195V30.9677H3.61295V13.4195C3.61295 13.1346 3.38173 12.9033 3.09683 12.9033H1.94175L15.9999 1.18837L23.9276 7.79269C24.262 8.07192 24.774 7.83398 24.774 7.39631V2.58088H28.3869V11.2672C28.3869 11.6843 28.741 11.7343 30.0591 12.9033H28.903Z" fill="#00A0DC"/>
<path d="M26.8393 12.3874H18.5814C18.3594 12.3874 18.1618 12.5293 18.0916 12.7404L16.9298 16.2243C16.7135 16.872 17.6931 17.1987 17.9089 16.551L18.9535 13.4196H26.1235L24.5751 18.0648H21.162C20.4791 18.0648 20.4791 19.097 21.162 19.097H24.2309L23.8866 20.1293H20.1297V19.6131C20.1297 18.7595 19.435 18.0648 18.5814 18.0648H16.8807L15.8351 15.1332C15.6095 14.5009 15.1507 13.9982 14.5778 13.7045C16.1809 12.1371 15.5533 9.26227 13.4681 8.82408C11.1167 8.33015 9.38713 11.3608 10.8777 13.4191H10.5722C8.58095 13.4191 8.09734 15.303 7.93837 15.5043H5.73556C5.12085 15.5043 4.64447 16.0385 4.70898 16.6449L5.63233 25.3978C5.68807 25.9253 6.12936 26.3227 6.6589 26.3227H9.80726V27.355H7.74276C7.17348 27.355 6.71051 27.8179 6.71051 28.3872V28.9034C6.71051 29.5862 7.74276 29.5862 7.74276 28.9034V28.3872H12.904V28.9034C12.904 29.5862 13.9362 29.5862 13.9362 28.9034V28.3872C13.9362 27.8179 13.4733 27.355 12.904 27.355H10.8395V26.3227C12.6021 26.3196 14.9226 26.3336 15.1089 26.3088L15.2998 27.6471C15.4444 28.6577 16.3228 29.4195 17.3437 29.4195C18.0322 29.4195 18.5767 28.829 18.5194 28.1416L18.1225 23.3783C18.0694 22.7403 17.6203 22.1937 17.0046 22.0178L14.4524 21.2885V18.0648C14.4524 17.3819 13.4201 17.3819 13.4201 18.0648V21.6776C13.4201 21.9078 13.5729 22.1107 13.7943 22.1736L16.7213 23.0097C16.9267 23.0686 17.0763 23.2508 17.0939 23.4634C17.4779 28.2819 17.592 28.3465 17.3437 28.3872C15.7406 28.652 16.2382 26.22 16.0007 24.2582C16.0007 23.689 15.5378 23.226 14.9685 23.226H11.8072L10.8947 16.4003C10.8266 15.8898 10.3869 15.5048 9.87177 15.5048H9.09036C9.13526 15.4516 9.47229 14.4519 10.5727 14.4519H13.4046C15.1378 14.4519 15.0397 16.5928 16.0312 18.7543C16.104 18.9597 16.2985 19.097 16.5169 19.097H18.5814C19.2637 19.097 19.0681 19.9982 19.0975 20.1293H16.0007C15.3179 20.1293 15.3179 21.1615 16.0007 21.1615H21.6781V28.3872C21.6781 29.0701 22.7104 29.0701 22.7104 28.3872V21.1615C22.8074 21.1615 25.9072 21.1615 25.8071 21.1615V28.3872C25.8071 29.0701 26.8393 29.0701 26.8393 28.3872V20.6454C26.8393 20.3605 26.6081 20.1293 26.3232 20.1293H24.9751L27.3291 13.0666C27.4396 12.7368 27.195 12.3874 26.8393 12.3874ZM10.8442 23.8102C10.8782 24.0668 11.0971 24.2582 11.3556 24.2582H14.9685V25.2905H6.6589C5.39336 13.2947 5.83001 17.432 5.73556 16.537H9.87177L10.8442 23.8102ZM13.2565 9.83465C15.2632 10.2558 14.5153 13.8026 12.552 13.3913C10.5562 12.9737 11.2638 9.42692 13.2565 9.83465Z" fill="#00A0DC"/>
</svg>
