<svg width="40" height="40" viewBox="0 0 40 40" fill="none" xmlns="http://www.w3.org/2000/svg">
<path d="M29.652 24.8584H27.7344V29.6524H32.5284V27.7348H29.652V24.8584Z" fill="#00A0DC"/>
<path d="M28.6935 21.0231C27.9854 21.0231 27.2996 21.12 26.6481 21.3004V7.47195H19.9364V4.96173L19.4064 4.69671C19.3199 4.65344 17.262 3.63672 15.1424 3.63672C13.0228 3.63672 10.9649 4.65344 10.8784 4.69671L10.3484 4.96173V7.47195H3.63672V24.7305H22.1284C21.4272 25.8878 21.0231 27.2443 21.0231 28.6935C21.0231 32.923 24.4641 36.364 28.6935 36.364C32.923 36.364 36.364 32.923 36.364 28.6935C36.364 24.4641 32.923 21.0231 28.6935 21.0231ZM12.266 6.1828C12.9087 5.92852 14.0416 5.55433 15.1424 5.55433C16.2434 5.55433 17.3766 5.92871 18.0188 6.18273V7.47195H12.266V6.1828ZM5.55433 9.38956H24.7305V13.3834L15.1424 15.1267L5.55433 13.3834V9.38956ZM5.55433 15.3324L14.1836 16.9014V18.9776H16.1012V16.9014L24.7305 15.3325V22.1285C24.3941 22.3324 24.0748 22.5615 23.7747 22.8129H5.55433V15.3324ZM28.6935 34.4464C25.5214 34.4464 22.9407 31.8657 22.9407 28.6935C22.9407 25.5214 25.5214 22.9407 28.6935 22.9407C31.8657 22.9407 34.4464 25.5214 34.4464 28.6935C34.4464 31.8657 31.8657 34.4464 28.6935 34.4464Z" fill="#00A0DC"/>
</svg>
