<svg width="20" height="23" viewBox="0 0 20 23" fill="none" xmlns="http://www.w3.org/2000/svg">
<path d="M12.2222 0H7.77778C3.5 0 0 3.5 0 7.77778V11.1111C0 14.1111 1.75 16.8611 4.44444 18.1389V21.8611C4.44444 22.1944 4.86111 22.3611 5.08333 22.1111L8.30556 18.8889H12.2222C16.5 18.8889 20 15.3889 20 11.1111V7.77778C20 3.5 16.5 0 12.2222 0ZM15.1389 14.5833L14 15.6944C12.8056 16.8611 9.72222 15.5278 7 12.75C4.27778 9.97222 3.08333 6.86111 4.22222 5.69444L5.33333 4.58333C5.75 4.16667 6.44445 4.19444 6.91667 4.61111L8.52778 6.27778C9.11111 6.86111 8.86111 7.86111 8.11111 8.08333C7.58333 8.25 7.22222 8.83333 7.38889 9.36111C7.66667 10.5833 9.22222 12.1389 10.3889 12.4444C10.9167 12.5556 11.5 12.2778 11.6944 11.75C11.9444 11 12.9444 10.7778 13.5 11.3611L15.1111 13.0278C15.5556 13.4167 15.5556 14.1111 15.1389 14.5833ZM11 5.27778C10.8889 5.27778 10.7778 5.27778 10.6667 5.30556C10.4722 5.33333 10.2778 5.16667 10.25 4.97222C10.2222 4.77778 10.3889 4.58333 10.5833 4.55556C10.7222 4.52778 10.8611 4.52778 11 4.52778C13.0278 4.52778 14.6944 6.19444 14.6944 8.22222C14.6944 8.36111 14.6944 8.5 14.6667 8.63889C14.6389 8.83333 14.4444 9 14.25 8.97222C14.0556 8.94444 13.8889 8.75 13.9167 8.55556C13.9167 8.44444 13.9444 8.33333 13.9444 8.22222C13.9722 6.61111 12.6389 5.27778 11 5.27778ZM13.2222 8.25C13.2222 8.44444 13.0556 8.61111 12.8611 8.61111C12.6667 8.61111 12.5 8.44444 12.5 8.25C12.5 7.44445 11.8333 6.77778 11.0278 6.77778C10.8333 6.77778 10.6667 6.61111 10.6667 6.41667C10.6667 6.22222 10.8333 6.05556 11.0278 6.05556C12.2222 6.02778 13.2222 7.02778 13.2222 8.25ZM16.0556 9.44444C16 9.63889 15.8056 9.77778 15.5833 9.72222C15.3889 9.66667 15.2778 9.47222 15.3333 9.27778C15.4167 8.94445 15.4444 8.61111 15.4444 8.25C15.4444 5.80556 13.4444 3.80556 11 3.80556C10.8889 3.80556 10.7778 3.80556 10.6667 3.80556C10.4722 3.80556 10.2778 3.66667 10.2778 3.47222C10.2778 3.27778 10.4167 3.08333 10.6111 3.08333C10.75 3.08333 10.8889 3.05556 11 3.05556C13.8611 3.05556 16.1944 5.38889 16.1944 8.25C16.1944 8.63889 16.1389 9.05556 16.0556 9.44444Z" fill="white"/>
</svg>
